{
    "asset" : {
        "generator" : "Khronos glTF Blender I/O v1.1.45",
        "version" : "2.0"
    },
    "scene" : 0,
    "scenes" : [
        {
            "name" : "Scene",
            "nodes" : [
                0,
                1,
                2,
                3,
                4,
                5,
                6,
                7,
                8
            ]
        }
    ],
    "nodes" : [
        {
            "name" : "Light",
            "rotation" : [
                0.16907575726509094,
                0.7558803558349609,
                -0.27217137813568115,
                0.570947527885437
            ],
            "translation" : [
                4.076245307922363,
                5.903861999511719,
                -1.0054539442062378
            ]
        },
        {
            "name" : "Camera",
            "rotation" : [
                0.483536034822464,
                0.33687159419059753,
                -0.20870360732078552,
                0.7804827094078064
            ],
            "translation" : [
                7.358891487121582,
                4.958309173583984,
                6.925790786743164
            ]
        },
        {
            "name" : "Empty",
            "rotation" : [
                0.7071068286895752,
                0,
                0,
                0.7071067094802856
            ],
            "scale" : [
                0.3227485418319702,
                0.3227485418319702,
                0.3227485418319702
            ],
            "translation" : [
                0,
                0.44816645979881287,
                -0.6000347137451172
            ]
        },
        {
            "mesh" : 0,
            "name" : "Circle"
        },
        {
            "mesh" : 1,
            "name" : "Circle.001",
            "translation" : [
                0.6688343286514282,
                0,
                0
            ]
        },
        {
            "mesh" : 2,
            "name" : "Circle.002",
            "rotation" : [
                0.5,
                0.5,
                -0.5,
                0.4999999701976776
            ],
            "scale" : [
                0.016479384154081345,
                0.016479384154081345,
                0.016479384154081345
            ],
            "translation" : [
                0.17744630575180054,
                0.7525461316108704,
                0
            ]
        },
        {
            "mesh" : 3,
            "name" : "Cone",
            "rotation" : [
                0,
                0,
                0.7071067690849304,
                0.7071068286895752
            ],
            "scale" : [
                0.013666304759681225,
                0.013666304759681225,
                0.013666304759681225
            ],
            "translation" : [
                0.16740559041500092,
                0.7527822256088257,
                -0.0002717152237892151
            ]
        },
        {
            "name" : "BezierCurve",
            "scale" : [
                1.0228571891784668,
                1.0228571891784668,
                1.0228571891784668
            ]
        },
        {
            "mesh" : 4,
            "name" : "Circle.003",
            "scale" : [
                0.71647047996521,
                0.71647047996521,
                0.71647047996521
            ],
            "translation" : [
                0.6595973968505859,
                0.801347553730011,
                0
            ]
        }
    ],
    "materials" : [
        {
            "doubleSided" : true,
            "emissiveFactor" : [
                0,
                0,
                0
            ],
            "name" : "Material.001",
            "pbrMetallicRoughness" : {
                "baseColorFactor" : [
                    0.011421122588217258,
                    0.7771450877189636,
                    0.8000000715255737,
                    1
                ],
                "metallicFactor" : 0,
                "roughnessFactor" : 0.5
            }
        },
        {
            "doubleSided" : true,
            "emissiveFactor" : [
                0,
                0,
                0
            ],
            "name" : "Material.003",
            "pbrMetallicRoughness" : {
                "baseColorFactor" : [
                    0.06071966513991356,
                    0.06071966513991356,
                    0.06071966513991356,
                    1
                ],
                "metallicFactor" : 0,
                "roughnessFactor" : 0.5
            }
        },
        {
            "doubleSided" : true,
            "emissiveFactor" : [
                0,
                0,
                0
            ],
            "name" : "Material.002",
            "pbrMetallicRoughness" : {
                "baseColorFactor" : [
                    0.0015474831452593207,
                    0.0015474831452593207,
                    0.0015474831452593207,
                    1
                ],
                "metallicFactor" : 0,
                "roughnessFactor" : 0.5
            }
        }
    ],
    "meshes" : [
        {
            "name" : "Circle",
            "primitives" : [
                {
                    "attributes" : {
                        "POSITION" : 0,
                        "NORMAL" : 1,
                        "TEXCOORD_0" : 2
                    },
                    "indices" : 3,
                    "material" : 0
                },
                {
                    "attributes" : {
                        "POSITION" : 4,
                        "NORMAL" : 5,
                        "TEXCOORD_0" : 6
                    },
                    "indices" : 7,
                    "material" : 1
                }
            ]
        },
        {
            "name" : "Circle.001",
            "primitives" : [
                {
                    "attributes" : {
                        "POSITION" : 8,
                        "NORMAL" : 9,
                        "TEXCOORD_0" : 10
                    },
                    "indices" : 11,
                    "material" : 0
                }
            ]
        },
        {
            "name" : "Circle.002",
            "primitives" : [
                {
                    "attributes" : {
                        "POSITION" : 12,
                        "NORMAL" : 13,
                        "TEXCOORD_0" : 14
                    },
                    "indices" : 15,
                    "material" : 1
                }
            ]
        },
        {
            "name" : "Cone.002",
            "primitives" : [
                {
                    "attributes" : {
                        "POSITION" : 16,
                        "NORMAL" : 17,
                        "TEXCOORD_0" : 18
                    },
                    "indices" : 19,
                    "material" : 1
                }
            ]
        },
        {
            "name" : "Circle.005",
            "primitives" : [
                {
                    "attributes" : {
                        "POSITION" : 20,
                        "NORMAL" : 21,
                        "TEXCOORD_0" : 22
                    },
                    "indices" : 23,
                    "material" : 2
                }
            ]
        }
    ],
    "accessors" : [
        {
            "bufferView" : 0,
            "componentType" : 5126,
            "count" : 100,
            "max" : [
                -0.0003626737743616104,
                0.7988435626029968,
                0.11645501106977463
            ],
            "min" : [
                -0.44495677947998047,
                0.7091849446296692,
                -0.11645538359880447
            ],
            "type" : "VEC3"
        },
        {
            "bufferView" : 1,
            "componentType" : 5126,
            "count" : 100,
            "type" : "VEC3"
        },
        {
            "bufferView" : 2,
            "componentType" : 5126,
            "count" : 100,
            "type" : "VEC2"
        },
        {
            "bufferView" : 3,
            "componentType" : 5123,
            "count" : 498,
            "type" : "SCALAR"
        },
        {
            "bufferView" : 4,
            "componentType" : 5126,
            "count" : 64,
            "max" : [
                -0.0003626737743616104,
                0.7690255045890808,
                0.016479384154081345
            ],
            "min" : [
                -0.0608808770775795,
                0.7360667586326599,
                -0.016479384154081345
            ],
            "type" : "VEC3"
        },
        {
            "bufferView" : 5,
            "componentType" : 5126,
            "count" : 64,
            "type" : "VEC3"
        },
        {
            "bufferView" : 6,
            "componentType" : 5126,
            "count" : 64,
            "type" : "VEC2"
        },
        {
            "bufferView" : 7,
            "componentType" : 5123,
            "count" : 282,
            "type" : "SCALAR"
        },
        {
            "bufferView" : 8,
            "componentType" : 5126,
            "count" : 68,
            "max" : [
                -0.22030426561832428,
                0.7988435626029968,
                0.11645501106977463
            ],
            "min" : [
                -0.44495677947998047,
                0.7091849446296692,
                -0.11645538359880447
            ],
            "type" : "VEC3"
        },
        {
            "bufferView" : 9,
            "componentType" : 5126,
            "count" : 68,
            "type" : "VEC3"
        },
        {
            "bufferView" : 10,
            "componentType" : 5126,
            "count" : 68,
            "type" : "VEC2"
        },
        {
            "bufferView" : 11,
            "componentType" : 5123,
            "count" : 396,
            "type" : "SCALAR"
        },
        {
            "bufferView" : 12,
            "componentType" : 5126,
            "count" : 64,
            "max" : [
                1,
                3.440007448196411,
                1
            ],
            "min" : [
                -1.0000001192092896,
                0,
                -1.0000001192092896
            ],
            "type" : "VEC3"
        },
        {
            "bufferView" : 13,
            "componentType" : 5126,
            "count" : 64,
            "type" : "VEC3"
        },
        {
            "bufferView" : 14,
            "componentType" : 5126,
            "count" : 64,
            "type" : "VEC2"
        },
        {
            "bufferView" : 15,
            "componentType" : 5123,
            "count" : 192,
            "type" : "SCALAR"
        },
        {
            "bufferView" : 16,
            "componentType" : 5126,
            "count" : 130,
            "max" : [
                1.940000057220459,
                0.20331811904907227,
                1.940000057220459
            ],
            "min" : [
                -1.940000057220459,
                -1,
                -1.940000057220459
            ],
            "type" : "VEC3"
        },
        {
            "bufferView" : 17,
            "componentType" : 5126,
            "count" : 130,
            "type" : "VEC3"
        },
        {
            "bufferView" : 18,
            "componentType" : 5126,
            "count" : 130,
            "type" : "VEC2"
        },
        {
            "bufferView" : 19,
            "componentType" : 5123,
            "count" : 372,
            "type" : "SCALAR"
        },
        {
            "bufferView" : 20,
            "componentType" : 5126,
            "count" : 2346,
            "max" : [
                0.15345174074172974,
                -0.01642584800720215,
                0.12153153866529465
            ],
            "min" : [
                -1.9994127750396729,
                -1.1097707748413086,
                -0.11725421994924545
            ],
            "type" : "VEC3"
        },
        {
            "bufferView" : 21,
            "componentType" : 5126,
            "count" : 2346,
            "type" : "VEC3"
        },
        {
            "bufferView" : 22,
            "componentType" : 5126,
            "count" : 2346,
            "type" : "VEC2"
        },
        {
            "bufferView" : 23,
            "componentType" : 5123,
            "count" : 14064,
            "type" : "SCALAR"
        }
    ],
    "bufferViews" : [
        {
            "buffer" : 0,
            "byteLength" : 1200,
            "byteOffset" : 0
        },
        {
            "buffer" : 0,
            "byteLength" : 1200,
            "byteOffset" : 1200
        },
        {
            "buffer" : 0,
            "byteLength" : 800,
            "byteOffset" : 2400
        },
        {
            "buffer" : 0,
            "byteLength" : 996,
            "byteOffset" : 3200
        },
        {
            "buffer" : 0,
            "byteLength" : 768,
            "byteOffset" : 4196
        },
        {
            "buffer" : 0,
            "byteLength" : 768,
            "byteOffset" : 4964
        },
        {
            "buffer" : 0,
            "byteLength" : 512,
            "byteOffset" : 5732
        },
        {
            "buffer" : 0,
            "byteLength" : 564,
            "byteOffset" : 6244
        },
        {
            "buffer" : 0,
            "byteLength" : 816,
            "byteOffset" : 6808
        },
        {
            "buffer" : 0,
            "byteLength" : 816,
            "byteOffset" : 7624
        },
        {
            "buffer" : 0,
            "byteLength" : 544,
            "byteOffset" : 8440
        },
        {
            "buffer" : 0,
            "byteLength" : 792,
            "byteOffset" : 8984
        },
        {
            "buffer" : 0,
            "byteLength" : 768,
            "byteOffset" : 9776
        },
        {
            "buffer" : 0,
            "byteLength" : 768,
            "byteOffset" : 10544
        },
        {
            "buffer" : 0,
            "byteLength" : 512,
            "byteOffset" : 11312
        },
        {
            "buffer" : 0,
            "byteLength" : 384,
            "byteOffset" : 11824
        },
        {
            "buffer" : 0,
            "byteLength" : 1560,
            "byteOffset" : 12208
        },
        {
            "buffer" : 0,
            "byteLength" : 1560,
            "byteOffset" : 13768
        },
        {
            "buffer" : 0,
            "byteLength" : 1040,
            "byteOffset" : 15328
        },
        {
            "buffer" : 0,
            "byteLength" : 744,
            "byteOffset" : 16368
        },
        {
            "buffer" : 0,
            "byteLength" : 28152,
            "byteOffset" : 17112
        },
        {
            "buffer" : 0,
            "byteLength" : 28152,
            "byteOffset" : 45264
        },
        {
            "buffer" : 0,
            "byteLength" : 18768,
            "byteOffset" : 73416
        },
        {
            "buffer" : 0,
            "byteLength" : 28128,
            "byteOffset" : 92184
        }
    ],
    "buffers" : [
        {
            "byteLength" : 120312,
            "uri" : "data:application/octet-stream;base64,"
        }
    ]
}
