<?xml version="1.0" encoding="utf-8"?>
<!-- Generator: Adobe Illustrator 24.0.1, SVG Export Plug-In . SVG Version: 6.00 Build 0)  -->
<svg version="1.1" id="Layer_1" xmlns="http://www.w3.org/2000/svg" xmlns:xlink="http://www.w3.org/1999/xlink" x="0px" y="0px"
	 viewBox="0 0 512 512" style="enable-background:new 0 0 512 512;" xml:space="preserve">
<style type="text/css">
	.st0{fill:#03AEAE;}
</style>
<g>
	<circle class="st0" cx="361" cy="200" r="10"/>
	<path class="st0" d="M361,70c-10.2,0-20.2,1.2-30,3.5V50c0-6.8-1.3-13.3-3.9-19.5c-2.5-6-6.1-11.3-10.7-15.9
		c-4.6-4.6-9.9-8.2-15.9-10.7C294.3,1.3,287.8,0,281,0H71c-5.9,0-11.7,1-17.2,3C48.5,5,43.6,7.8,39.2,11.4
		C30.4,18.7,24.3,28.8,22,39.9c-1.1,5.4,2.4,10.7,7.8,11.8c0.7,0.1,1.3,0.2,2,0.2c4.7,0,8.8-3.4,9.8-8C44.5,30.1,56.8,20,70.9,20
		h7.6l12.9,42.9c1.3,4.2,5.2,7.1,9.6,7.1h150c4.4,0,8.3-2.9,9.6-7.1L273.4,20h7.6c16.5,0,30,13.5,30,30v412c0,16.5-13.5,30-30,30H71
		c-16.5,0-30-13.5-30-30V131.9c0-5.5-4.5-10-10-10s-10,4.5-10,10V462c0,6.8,1.3,13.3,3.9,19.5c2.5,6,6.1,11.3,10.7,15.9
		s9.9,8.2,15.9,10.7c6.2,2.6,12.7,3.9,19.5,3.9h210c6.8,0,13.3-1.3,19.5-3.9c6-2.5,11.3-6.1,15.9-10.7s8.2-9.9,10.7-15.9
		c2.6-6.2,3.9-12.7,3.9-19.5V326.5c9.8,2.3,19.8,3.5,30,3.5c71.7,0,130-58.3,130-130S432.7,70,361,70z M243.6,50H108.4l-9-30h153.1
		L243.6,50z M331,240c8.4,6.3,18.8,10,30,10c27.6,0,50-22.4,50-50s-22.4-50-50-50c-11.2,0-21.6,3.7-30,10v-23.3
		c9.3-4.4,19.6-6.8,30-6.8c38.6,0,70,31.4,70,70s-31.4,70-70,70c-10.4,0-20.7-2.3-30-6.8V240z M331,200c0-16.5,13.5-30,30-30
		s30,13.5,30,30s-13.5,30-30,30S331,216.5,331,200z M361,310c-10.2,0-20.3-1.4-30-4.2v-21c9.6,3.4,19.7,5.2,30,5.2
		c49.6,0,90-40.4,90-90s-40.4-90-90-90c-10.3,0-20.4,1.8-30,5.2v-21c9.7-2.8,19.8-4.2,30-4.2c60.7,0,110,49.3,110,110
		S421.7,310,361,310L361,310z"/>
	<circle class="st0" cx="31" cy="86.9" r="10"/>
	<path class="st0" d="M136,422c0,22.1,17.9,40,40,40s40-17.9,40-40s-17.9-40-40-40S136,399.9,136,422z M196,422c0,11-9,20-20,20
		s-20-9-20-20s9-20,20-20S196,411,196,422z"/>
	<path class="st0" d="M70.1,150.5c-4.4,1.1-7.6,5.1-7.6,9.7V252c0,5.5,4.5,10,10,10s10-4.5,10-10v-52l29.3,54.8
		c2.9,5.4,8.3,6.9,12.3,5.8c3.8-1,8.3-4.6,8.3-11.8l-0.7-88.9c0-5.5-4.5-9.9-10-9.9c0,0-0.1,0-0.1,0c-5.5,0-10,4.6-9.9,10.1
		l0.4,53.1l-30.9-57.7C79.1,151.4,74.5,149.4,70.1,150.5L70.1,150.5z"/>
	<path class="st0" d="M197.5,170c5.5,0,10-4.5,10-10s-4.5-10-10-10h-35c-5.5,0-10,4.5-10,10v92c0,5.5,4.5,10,10,10s10-4.5,10-10
		v-36.9h22.2c5.5,0,10-4.5,10-10s-4.5-10-10-10h-22.2V170H197.5z"/>
	<path class="st0" d="M256.3,240c-7.2,0-14.3-3.6-18.9-9.7c-3.3-4.4-9.6-5.3-14-1.9s-5.3,9.6-1.9,14c8.4,11,21.4,17.6,34.8,17.6
		c15.6,0,29.2-11.2,32.5-26.6c3.3-15.7-5.2-30.6-21.8-37.9c-9.3-4.1-18-8.6-20.8-10c-1.9-1.9-2.8-5.2-2.3-8.6
		c0.3-1.9,1.5-6.3,6.3-8.1c9.9-3.6,19.4,5.4,19.7,5.7c3.9,3.9,10.2,3.9,14.1,0c3.9-3.9,3.9-10.2,0-14.1
		c-0.7-0.8-18.6-18.3-40.6-10.4c-10.3,3.7-17.5,12.6-19.2,23.7c-1.8,11,2.2,21.7,10.3,28c0.5,0.4,12.5,6.8,24.5,12.1
		c8,3.5,11.6,9,10.2,15.4C268.1,234.6,263.3,240,256.3,240L256.3,240z"/>
	<path class="st0" d="M91,295c0,5.5,4.5,10,10,10h150c5.5,0,10-4.5,10-10s-4.5-10-10-10H101C95.5,285,91,289.5,91,295z"/>
</g>
</svg>
